name ./resultDataOpenSim/trcMotMarkerGrf/sub10/grf-04-03.mot
datacolumns 19
datarows 22
range 1.52400000 1.60800000
endheader

                time	     ground_force_vx	     ground_force_vy	     ground_force_vz	     ground_force_px	     ground_force_py	     ground_force_pz	   l_ground_force_vx	   l_ground_force_vy	   l_ground_force_vz	   l_ground_force_px	   l_ground_force_py	   l_ground_force_pz	     ground_torque_x	     ground_torque_y	     ground_torque_z	   l_ground_torque_x	   l_ground_torque_y	   l_ground_torque_z	
          1.52400000	        -44.35413714	        499.21014082	        -27.99665555	          0.84357344	          0.00000000	          0.00900549	          0.00000000	          0.00000000	          0.00000000	          0.00000000	          0.00000000	          0.00000000	          0.00000000	          0.95490172	          0.00000000	          0.00000000	          0.00000000	          0.00000000	
          1.52800000	        -41.26411004	        485.49725323	        -27.80619767	          0.84471124	          0.00000000	          0.00910696	          0.00000000	          0.00000000	          0.00000000	          0.00000000	          0.00000000	          0.00000000	          0.00000000	          1.04849842	          0.00000000	          0.00000000	          0.00000000	          0.00000000	
          1.53200000	        -38.20920671	        472.26064358	        -27.43219249	          0.84586649	          0.00000000	          0.00921808	          0.00000000	          0.00000000	          0.00000000	          0.00000000	          0.00000000	          0.00000000	          0.00000000	          1.13293202	          0.00000000	          0.00000000	          0.00000000	          0.00000000	
          1.53600000	        -35.13119397	        459.57629818	        -26.74936001	          0.84703692	          0.00000000	          0.00931810	          0.00000000	          0.00000000	          0.00000000	          0.00000000	          0.00000000	          0.00000000	          0.00000000	          1.20152922	          0.00000000	          0.00000000	          0.00000000	          0.00000000	
          1.54000000	        -32.05274564	        447.52052768	        -25.69463542	          0.84822209	          0.00000000	          0.00938487	          0.00000000	          0.00000000	          0.00000000	          0.00000000	          0.00000000	          0.00000000	          0.00000000	          1.25176892	          0.00000000	          0.00000000	          0.00000000	          0.00000000	
          1.54400000	        -29.06491574	        436.14929022	        -24.28136128	          0.84942629	          0.00000000	          0.00940300	          0.00000000	          0.00000000	          0.00000000	          0.00000000	          0.00000000	          0.00000000	          0.00000000	          1.28524108	          0.00000000	          0.00000000	          0.00000000	          0.00000000	
          1.54800000	        -26.29291632	        425.50196351	        -22.59882839	          0.85065442	          0.00000000	          0.00936993	          0.00000000	          0.00000000	          0.00000000	          0.00000000	          0.00000000	          0.00000000	          0.00000000	          1.30647205	          0.00000000	          0.00000000	          0.00000000	          0.00000000	
          1.55200000	        -23.85738563	        415.61846473	        -20.79588553	          0.85191916	          0.00000000	          0.00929764	          0.00000000	          0.00000000	          0.00000000	          0.00000000	          0.00000000	          0.00000000	          0.00000000	          1.32151715	          0.00000000	          0.00000000	          0.00000000	          0.00000000	
          1.55600000	        -21.84237596	        406.54142765	        -19.04896780	          0.85324968	          0.00000000	          0.00920391	          0.00000000	          0.00000000	          0.00000000	          0.00000000	          0.00000000	          0.00000000	          0.00000000	          1.33695402	          0.00000000	          0.00000000	          0.00000000	          0.00000000	
          1.56000000	        -20.27413607	        398.29847817	        -17.52182139	          0.85467103	          0.00000000	          0.00910191	          0.00000000	          0.00000000	          0.00000000	          0.00000000	          0.00000000	          0.00000000	          0.00000000	          1.35926246	          0.00000000	          0.00000000	          0.00000000	          0.00000000	
          1.56400000	        -19.11272494	        390.88499127	        -16.33052116	          0.85618135	          0.00000000	          0.00899850	          0.00000000	          0.00000000	          0.00000000	          0.00000000	          0.00000000	          0.00000000	          0.00000000	          1.39414253	          0.00000000	          0.00000000	          0.00000000	          0.00000000	
          1.56800000	        -18.25940476	        384.27027955	        -15.52383284	          0.85775432	          0.00000000	          0.00889673	          0.00000000	          0.00000000	          0.00000000	          0.00000000	          0.00000000	          0.00000000	          0.00000000	          1.44545492	          0.00000000	          0.00000000	          0.00000000	          0.00000000	
          1.57200000	        -17.57915996	        378.42664845	        -15.08079892	          0.85934558	          0.00000000	          0.00879745	          0.00000000	          0.00000000	          0.00000000	          0.00000000	          0.00000000	          0.00000000	          0.00000000	          1.51402610	          0.00000000	          0.00000000	          0.00000000	          0.00000000	
          1.57600000	        -16.93095779	        373.34837914	        -14.92057669	          0.86090800	          0.00000000	          0.00870121	          0.00000000	          0.00000000	          0.00000000	          0.00000000	          0.00000000	          0.00000000	          0.00000000	          1.59703630	          0.00000000	          0.00000000	          0.00000000	          0.00000000	
          1.58000000	        -16.19605211	        369.04061888	        -14.91961604	          0.86241755	          0.00000000	          0.00860450	          0.00000000	          0.00000000	          0.00000000	          0.00000000	          0.00000000	          0.00000000	          0.00000000	          1.68861743	          0.00000000	          0.00000000	          0.00000000	          0.00000000	
          1.58400000	        -15.29964564	        365.49766454	        -14.93504404	          0.86385262	          0.00000000	          0.00849784	          0.00000000	          0.00000000	          0.00000000	          0.00000000	          0.00000000	          0.00000000	          0.00000000	          1.78162394	          0.00000000	          0.00000000	          0.00000000	          0.00000000	
          1.58800000	        -14.22312562	        362.69586110	        -14.83115743	          0.86520486	          0.00000000	          0.00837437	          0.00000000	          0.00000000	          0.00000000	          0.00000000	          0.00000000	          0.00000000	          0.00000000	          1.86980061	          0.00000000	          0.00000000	          0.00000000	          0.00000000	
          1.59200000	        -13.00411060	        360.59759564	        -14.50289117	          0.86648261	          0.00000000	          0.00823025	          0.00000000	          0.00000000	          0.00000000	          0.00000000	          0.00000000	          0.00000000	          0.00000000	          1.94933288	          0.00000000	          0.00000000	          0.00000000	          0.00000000	
          1.59600000	        -11.72348122	        359.14812448	        -13.89407579	          0.86768726	          0.00000000	          0.00806295	          0.00000000	          0.00000000	          0.00000000	          0.00000000	          0.00000000	          0.00000000	          0.00000000	          2.01921199	          0.00000000	          0.00000000	          0.00000000	          0.00000000	
          1.60000000	        -10.47636195	        358.27649785	        -13.01097079	          0.86884061	          0.00000000	          0.00787715	          0.00000000	          0.00000000	          0.00000000	          0.00000000	          0.00000000	          0.00000000	          0.00000000	          2.08061770	          0.00000000	          0.00000000	          0.00000000	          0.00000000	
          1.60400000	         -9.33257419	        357.91497607	        -11.92678868	          0.86994157	          0.00000000	          0.00769129	          0.00000000	          0.00000000	          0.00000000	          0.00000000	          0.00000000	          0.00000000	          0.00000000	          2.13601824	          0.00000000	          0.00000000	          0.00000000	          0.00000000	
          1.60800000	         -8.30700538	        358.02233853	        -10.76968439	          0.87096833	          0.00000000	          0.00752767	          0.00000000	          0.00000000	          0.00000000	          0.00000000	          0.00000000	          0.00000000	          0.00000000	          2.18859189	          0.00000000	          0.00000000	          0.00000000	          0.00000000	
